<svg width="24" height="24" viewBox="0 0 24 24" fill="none" xmlns="http://www.w3.org/2000/svg">
<path fill-rule="evenodd" clip-rule="evenodd" d="M13.7314 4.97411C14.75 4.28212 16.0306 4.27289 16.9762 4.8939C17.1856 5.0314 17.4148 5.25327 18.0809 5.91934C18.747 6.5854 18.9688 6.81469 19.1063 7.02406C19.7274 7.96967 19.7181 9.25022 19.0261 10.2689C18.8717 10.4963 18.6292 10.745 17.9395 11.4348L16.9495 12.4247C16.559 12.8152 16.559 13.4484 16.9495 13.8389C17.3401 14.2295 17.9732 14.2295 18.3637 13.8389L19.3537 12.849L19.4336 12.7691C20.0139 12.1891 20.4053 11.7978 20.6805 11.3927C21.804 9.73884 21.865 7.58121 20.7781 5.92619C20.5127 5.52216 20.1288 5.13844 19.5777 4.58764L19.5777 4.58763L19.4951 4.50513L19.4126 4.42256C18.8618 3.87145 18.4781 3.4875 18.074 3.22216C16.419 2.13527 14.2614 2.19621 12.6075 3.31973C12.2024 3.59492 11.8111 3.98637 11.2311 4.56664L11.1513 4.64655L10.1613 5.6365C9.77078 6.02702 9.77078 6.66018 10.1613 7.05071C10.5518 7.44123 11.185 7.44123 11.5755 7.05071L12.5655 6.06076C13.2552 5.37104 13.504 5.12857 13.7314 4.97411ZM7.05004 11.5762C7.44056 11.1857 7.44056 10.5525 7.05004 10.162C6.65951 9.77145 6.02635 9.77145 5.63582 10.162L4.64587 11.1519L4.56597 11.2318C3.9857 11.8118 3.59425 12.2031 3.31906 12.6082C2.19554 14.2621 2.1346 16.4197 3.22149 18.0747C3.48683 18.4788 3.87078 18.8625 4.4219 19.4133L4.50445 19.4958L4.58698 19.5784C5.13777 20.1295 5.52149 20.5134 5.92552 20.7787C7.58054 21.8656 9.73817 21.8047 11.3921 20.6812C11.7971 20.406 12.1884 20.0145 12.7685 19.4342L12.7685 19.4342L12.8483 19.3544L13.8383 18.3644C14.2288 17.9739 14.2288 17.3407 13.8383 16.9502C13.4477 16.5597 12.8146 16.5597 12.424 16.9502L11.4341 17.9402C10.7444 18.6299 10.4956 18.8723 10.2682 19.0268C9.24955 19.7188 7.969 19.728 7.02339 19.107C6.81402 18.9695 6.58473 18.7476 5.91867 18.0816C5.2526 17.4155 5.03072 17.1862 4.89322 16.9769C4.27222 16.0312 4.28145 14.7507 4.97344 13.732C5.1279 13.5047 5.37036 13.2559 6.06009 12.5661L7.05004 11.5762ZM15.5361 9.87837C15.9266 9.48784 15.9266 8.85468 15.5361 8.46415C15.1455 8.07363 14.5124 8.07363 14.1218 8.46415L8.46499 14.121C8.07447 14.5115 8.07447 15.1447 8.46499 15.5352C8.85552 15.9257 9.48868 15.9257 9.87921 15.5352L15.5361 9.87837Z" fill="#F4F4F5"/>
</svg>
