<svg width="45" height="16" viewBox="0 0 45 16" fill="none" xmlns="http://www.w3.org/2000/svg">
<path d="M1 7C0.447715 7 0 7.44772 0 8C0 8.55228 0.447715 9 1 9V7ZM44.4169 8.70711C44.8074 8.31658 44.8074 7.68342 44.4169 7.29289L38.0529 0.928932C37.6624 0.538408 37.0292 0.538408 36.6387 0.928932C36.2482 1.31946 36.2482 1.95262 36.6387 2.34315L42.2956 8L36.6387 13.6569C36.2482 14.0474 36.2482 14.6805 36.6387 15.0711C37.0292 15.4616 37.6624 15.4616 38.0529 15.0711L44.4169 8.70711ZM1 9H43.7098V7H1V9Z" fill="#EA580B"/>
</svg>
