<svg width="45" height="16" viewBox="0 0 45 16" fill="none" xmlns="http://www.w3.org/2000/svg">
<path d="M43.7097 7C44.262 7 44.7097 7.44772 44.7097 8C44.7097 8.55228 44.262 9 43.7097 9V7ZM0.292843 8.70711C-0.0976791 8.31658 -0.0976791 7.68342 0.292843 7.29289L6.6568 0.928932C7.04733 0.538408 7.68049 0.538408 8.07102 0.928932C8.46154 1.31946 8.46154 1.95262 8.07102 2.34315L2.41417 8L8.07102 13.6569C8.46154 14.0474 8.46154 14.6805 8.07102 15.0711C7.68049 15.4616 7.04733 15.4616 6.6568 15.0711L0.292843 8.70711ZM43.7097 9H0.99995V7H43.7097V9Z" fill="#EA580B"/>
</svg>
