<svg width="42" height="41" viewBox="0 0 42 41" fill="none" xmlns="http://www.w3.org/2000/svg">
<path fill-rule="evenodd" clip-rule="evenodd" d="M14.1667 2.83331C14.1667 1.72875 15.0621 0.833313 16.1667 0.833313H25.8334C26.9379 0.833313 27.8334 1.72874 27.8334 2.83331V6.16665H38.3334C39.8982 6.16665 41.1667 7.43517 41.1667 8.99998V17C41.1667 19.3926 40.1365 21.545 38.5 23.0369V31.6666C38.5 33.9678 36.6346 35.8333 34.3334 35.8333H7.66671C5.36552 35.8333 3.50004 33.9678 3.50004 31.6666V23.0364C1.86364 21.5446 0.833374 19.3927 0.833374 17V8.99998C0.833374 7.43517 2.1019 6.16665 3.66671 6.16665H14.1667V2.83331ZM24.8334 3.83331V6.16665H17.1667V3.83331H24.8334ZM3.83337 9.16665H14.1667H15.6667H26.3334H27.8334H38.1667V17C38.1667 18.6894 37.3575 20.1893 36.0992 21.1345C35.2358 21.783 34.1649 22.1666 33 22.1666H22.5V21C22.5 20.1716 21.8285 19.5 21 19.5C20.1716 19.5 19.5 20.1716 19.5 21V22.1666H9.00004C7.83553 22.1666 6.76456 21.7827 5.90091 21.134C4.6425 20.1887 3.83337 18.6892 3.83337 17V9.16665ZM19.5 25.1666H9.00004C8.12866 25.1666 7.28835 25.0297 6.50004 24.7762V31.6666C6.50004 32.311 7.02238 32.8333 7.66671 32.8333H34.3334C34.9777 32.8333 35.5 32.311 35.5 31.6666V24.7765C34.7117 25.0298 33.8713 25.1666 33 25.1666H22.5V26.3333C22.5 27.1617 21.8285 27.8333 21 27.8333C20.1716 27.8333 19.5 27.1617 19.5 26.3333V25.1666Z" fill="#EA580B"/>
</svg>
