<svg width="24" height="24" viewBox="0 0 24 24" fill="none" xmlns="http://www.w3.org/2000/svg">
<path fill-rule="evenodd" clip-rule="evenodd" d="M8.07453 3.20577C8.03269 3.19919 7.99016 3.19819 7.94805 3.20277C6.64811 3.34436 4.636 4.0554 3.45117 4.69802C3.40108 4.72518 3.35623 4.76106 3.31871 4.80395C2.85125 5.33843 2.41073 6.23581 2.05438 7.1187C1.69183 8.01698 1.39176 8.96362 1.22171 9.64347C0.663752 11.8743 0.355716 14.5615 0.315976 17.1125C0.314724 17.1928 0.33367 17.2722 0.371075 17.3433C0.815596 18.1887 1.79467 19.0047 2.81698 19.6172C3.84659 20.2341 5.02675 20.7081 5.95387 20.7977C6.10337 20.8121 6.251 20.7558 6.35284 20.6454C6.57972 20.3994 6.98432 19.7989 7.30684 19.3053C7.47427 19.0491 7.62929 18.8064 7.74237 18.6279C7.76105 18.5984 7.77859 18.5707 7.79486 18.5449C8.85796 18.755 10.2253 18.8801 12.0001 18.8801C13.7729 18.8801 15.1391 18.7553 16.2017 18.5456C16.2179 18.5712 16.2353 18.5987 16.2538 18.6279C16.3668 18.8064 16.5219 19.0491 16.6893 19.3053C17.0118 19.7989 17.4164 20.3994 17.6433 20.6454C17.7451 20.7558 17.8928 20.8121 18.0423 20.7977C18.9694 20.7081 20.1495 20.2341 21.1792 19.6172C22.2015 19.0047 23.1805 18.1887 23.6251 17.3433C23.6625 17.2722 23.6814 17.1928 23.6802 17.1125C23.6404 14.5615 23.3324 11.8743 22.7744 9.64347C22.6044 8.96362 22.3043 8.01698 21.9417 7.1187C21.5854 6.23581 21.1449 5.33843 20.6774 4.80395C20.6399 4.76106 20.5951 4.72518 20.545 4.69802C19.3601 4.0554 17.348 3.34436 16.0481 3.20277C16.006 3.19819 15.9634 3.19919 15.9216 3.20577C15.6589 3.24704 15.4195 3.38565 15.2266 3.5314C15.0263 3.68267 14.8358 3.8726 14.6679 4.06963C14.3703 4.41889 14.0975 4.84601 13.9684 5.20437C13.3732 5.15028 12.7181 5.11992 12 5.11992C11.2804 5.11992 10.6241 5.15041 10.0279 5.20472C9.89884 4.84628 9.62596 4.419 9.32826 4.06963C9.16037 3.8726 8.96982 3.68267 8.76958 3.5314C8.57664 3.38565 8.3372 3.24704 8.07453 3.20577ZM17.1852 18.3036C17.2764 18.4464 17.382 18.6104 17.4929 18.7802C17.7495 19.1729 18.0144 19.5644 18.1978 19.8078C18.904 19.6831 19.8236 19.3103 20.6858 18.7937C21.6064 18.2422 22.3666 17.5833 22.718 16.9983C22.671 14.5446 22.3706 11.9853 21.8431 9.87641C21.6842 9.24089 21.398 8.33643 21.0515 7.478C20.7166 6.6483 20.347 5.91677 20.0085 5.49977C18.9214 4.92633 17.1514 4.30946 16.026 4.16679C15.9779 4.1847 15.9037 4.223 15.8052 4.2974C15.6752 4.39564 15.5346 4.53258 15.3986 4.69226C15.2135 4.90945 15.0624 5.13778 14.9644 5.32419C15.6175 5.4235 16.181 5.5534 16.6612 5.70115C17.7349 6.03153 18.4528 6.47031 18.784 6.91192C18.9431 7.124 18.9001 7.42486 18.688 7.58392C18.4759 7.74298 18.1751 7.7 18.016 7.48792C17.8672 7.28953 17.3851 6.92832 16.3789 6.6187C15.3944 6.31577 13.9636 6.07992 12 6.07992C10.0365 6.07992 8.60568 6.31577 7.62117 6.6187C6.6149 6.92832 6.13281 7.28953 5.98402 7.48792C5.82496 7.7 5.5241 7.74298 5.31202 7.58392C5.09994 7.42486 5.05696 7.124 5.21602 6.91192C5.54723 6.47031 6.26513 6.03153 7.33885 5.70115C7.81816 5.55367 8.3805 5.42398 9.03202 5.32474C8.93399 5.13823 8.78281 4.90966 8.59756 4.69226C8.4615 4.53258 8.32096 4.39564 8.19092 4.2974C8.09242 4.223 8.01826 4.1847 7.97016 4.16679C6.84469 4.30946 5.0747 4.92633 3.98762 5.49977C3.64918 5.91677 3.27949 6.6483 2.94461 7.478C2.59814 8.33643 2.31198 9.24089 2.15302 9.87641C1.62555 11.9853 1.32517 14.5446 1.2781 16.9983C1.6295 17.5833 2.38977 18.2422 3.31037 18.7937C4.17252 19.3103 5.09215 19.6831 5.79832 19.8078C5.98173 19.5644 6.2466 19.1729 6.50319 18.7802C6.61439 18.61 6.7202 18.4456 6.81156 18.3026C5.37103 17.8657 4.67139 17.2325 4.24067 16.5864C4.09362 16.3658 4.15323 16.0678 4.37381 15.9207C4.59438 15.7737 4.8924 15.8333 5.03944 16.0539C5.54079 16.8059 6.76358 17.9201 12.0001 17.9201C17.2365 17.9201 18.4593 16.806 18.9607 16.0539C19.1077 15.8333 19.4058 15.7737 19.6263 15.9207C19.8469 16.0678 19.9065 16.3658 19.7594 16.5864C19.3283 17.233 18.628 17.8667 17.1852 18.3036ZM6.5288 11.2195C6.91861 10.7997 7.44764 10.5625 8.00014 10.5599C8.55264 10.5625 9.08167 10.7997 9.47148 11.2195C9.86129 11.6393 10.0801 12.2075 10.0801 12.7999C10.0801 13.3923 9.86129 13.9605 9.47148 14.3803C9.08167 14.8001 8.55264 15.0373 8.00014 15.0399C7.44764 15.0373 6.91861 14.8001 6.5288 14.3803C6.13899 13.9605 5.92014 13.3923 5.92014 12.7999C5.92014 12.2075 6.13899 11.6393 6.5288 11.2195ZM15.9982 10.5599C15.4457 10.5625 14.9167 10.7997 14.5268 11.2195C14.137 11.6393 13.9182 12.2075 13.9182 12.7999C13.9182 13.3923 14.137 13.9605 14.5268 14.3803C14.9167 14.8001 15.4457 15.0373 15.9982 15.0399C16.5507 15.0373 17.0797 14.8001 17.4695 14.3803C17.8593 13.9605 18.0782 13.3923 18.0782 12.7999C18.0782 12.2075 17.8593 11.6393 17.4695 11.2195C17.0797 10.7997 16.5507 10.5625 15.9982 10.5599Z" fill="#F4F4F5"/>
</svg>
