<svg width="24" height="24" viewBox="0 0 24 24" fill="none" xmlns="http://www.w3.org/2000/svg">
<path fill-rule="evenodd" clip-rule="evenodd" d="M11.9988 0.399902C5.59407 0.399902 0.399902 5.59339 0.399902 12.0003C0.399902 17.1247 3.72335 21.4728 8.33287 23.0074C8.91324 23.1135 9.12474 22.7554 9.12474 22.4477C9.12474 22.1721 9.11477 21.4429 9.10907 20.4752C5.88248 21.1759 5.2017 18.9199 5.2017 18.9199C4.67402 17.5797 3.91348 17.2229 3.91348 17.2229C2.86027 16.5037 3.99324 16.5179 3.99324 16.5179C5.15755 16.5998 5.76996 17.7136 5.76996 17.7136C6.80467 19.486 8.48526 18.974 9.1461 18.6771C9.2515 17.9279 9.5513 17.4166 9.88243 17.1268C7.30671 16.8334 4.59854 15.8386 4.59854 11.3936C4.59854 10.1267 5.05073 9.09201 5.79276 8.28091C5.67312 7.98752 5.27505 6.80823 5.90669 5.21096C5.90669 5.21096 6.88015 4.89905 9.09625 6.39947C10.0213 6.1424 11.014 6.01422 12.0003 6.00923C12.9858 6.01422 13.9778 6.1424 14.9043 6.39947C17.1189 4.89905 18.091 5.21096 18.091 5.21096C18.7241 6.80823 18.326 7.98752 18.2071 8.28091C18.9505 9.09201 19.3991 10.1267 19.3991 11.3936C19.3991 15.85 16.6867 16.8306 14.1031 17.1175C14.519 17.4757 14.89 18.1836 14.89 19.266C14.89 20.8163 14.8758 22.0675 14.8758 22.4477C14.8758 22.7582 15.0851 23.1192 15.6734 23.006C20.2793 21.4686 23.5999 17.124 23.5999 12.0003C23.5999 5.59339 18.4057 0.399902 11.9988 0.399902Z" fill="#F4F4F5"/>
</svg>
