<svg width="24" height="24" viewBox="0 0 24 24" fill="none" xmlns="http://www.w3.org/2000/svg">
<path fill-rule="evenodd" clip-rule="evenodd" d="M20.6547 20.6545C21.1785 20.1308 21.5871 19.5033 21.8543 18.8125C22.1114 18.1509 22.2871 17.395 22.3377 16.288C22.3883 15.1787 22.4003 14.8246 22.4003 12.0001C22.4003 9.17567 22.3883 8.82134 22.3377 7.71223C22.2871 6.60523 22.1114 5.84926 21.8543 5.18774C21.5931 4.4938 21.1837 3.86518 20.6547 3.3457C20.1352 2.81655 19.5065 2.40709 18.8125 2.1459C18.151 1.889 17.395 1.71321 16.288 1.66289C15.1789 1.61207 14.8247 1.6001 12.0002 1.6001C9.17571 1.6001 8.82142 1.61207 7.71231 1.66268C6.60531 1.71321 5.84934 1.889 5.18783 2.1461C4.49389 2.40725 3.86526 2.81661 3.34578 3.34566C2.81662 3.8651 2.40714 4.49373 2.1459 5.1877C1.889 5.84926 1.71321 6.60523 1.66289 7.71223C1.61207 8.82134 1.6001 9.17563 1.6001 12.0001C1.6001 14.8246 1.61207 15.1789 1.66289 16.288C1.71342 17.395 1.8892 18.151 2.14631 18.8125C2.40745 19.5064 2.81682 20.1351 3.34587 20.6545C3.86534 21.1836 4.49397 21.593 5.18791 21.8541C5.84947 22.1112 6.60544 22.287 7.7124 22.3375C8.82167 22.3881 9.17583 22.4001 12.0003 22.4001C14.8247 22.4001 15.1791 22.3881 16.2882 22.3375C17.3952 22.287 18.1511 22.1112 18.8127 21.8541C19.5035 21.5869 20.1309 21.1783 20.6547 20.6545ZM3.19928 10.776C3.19969 11.1125 3.20017 11.5128 3.20017 12.0001C3.20017 12.4875 3.19969 12.8878 3.19928 13.2242C3.19769 14.5376 3.19728 14.8778 3.23151 15.6249C3.27409 16.5616 3.32526 17.2499 3.48151 17.7686C3.63171 18.2673 3.80017 18.7749 4.35017 19.3874C4.90017 19.9999 5.43068 20.2773 6.10642 20.4811C6.78217 20.685 7.63146 20.7288 8.36892 20.7624C9.20539 20.8006 9.53691 20.8005 11.2914 20.8L12.0002 20.7999C12.469 20.7999 12.8572 20.8003 13.1855 20.8007C14.5312 20.8021 14.8709 20.8025 15.6253 20.7679C16.562 20.7254 17.2503 20.6742 17.769 20.5179C18.2677 20.3677 18.7753 20.1993 19.3878 19.6493C20.0003 19.0993 20.2777 18.5688 20.4815 17.893C20.6853 17.2173 20.7291 16.368 20.7628 15.6305C20.8009 14.7951 20.8008 14.4645 20.8003 12.716V12.7159L20.8002 12.0007L20.8003 11.2921C20.8008 9.53746 20.8009 9.20595 20.7627 8.36945C20.7291 7.63199 20.6853 6.7827 20.4815 6.10695C20.2777 5.43121 20.0002 4.9007 19.3877 4.3507C18.7752 3.8007 18.2676 3.63224 17.769 3.48204C17.2502 3.32579 16.5619 3.27462 15.6252 3.23204C14.8708 3.19747 14.5312 3.19784 13.1856 3.19932H13.1856C12.8572 3.19968 12.469 3.20011 12.0002 3.20011L11.2914 3.19999H11.2914H11.2913C9.53691 3.19952 9.20538 3.19943 8.36892 3.23759C7.63146 3.27123 6.78217 3.31503 6.10642 3.51884C5.43068 3.72265 4.90017 4.00009 4.35017 4.61259C3.80017 5.22509 3.63171 5.73268 3.48151 6.23134C3.32526 6.75009 3.27409 7.4384 3.23151 8.37509C3.19728 9.12219 3.19769 9.46251 3.19928 10.776V10.776V10.776ZM12 8.10034C9.84627 8.10034 8.10029 9.84632 8.10029 12.0001C8.10029 14.1539 9.84627 15.8998 12 15.8998C14.1538 15.8998 15.8998 14.1539 15.8998 12.0001C15.8998 9.84632 14.1538 8.10034 12 8.10034ZM7.10029 12.0001C7.10029 9.29403 9.29398 7.10034 12 7.10034C14.7061 7.10034 16.8998 9.29403 16.8998 12.0001C16.8998 14.7061 14.7061 16.8998 12 16.8998C9.29398 16.8998 7.10029 14.7061 7.10029 12.0001ZM17.5517 7.64858C18.2144 7.64858 18.7517 7.11133 18.7517 6.44858C18.7517 5.78584 18.2144 5.24858 17.5517 5.24858C16.8889 5.24858 16.3517 5.78584 16.3517 6.44858C16.3517 7.11133 16.8889 7.64858 17.5517 7.64858Z" fill="#F4F4F5"/>
</svg>
