<svg width="24" height="24" viewBox="0 0 24 24" fill="none" xmlns="http://www.w3.org/2000/svg">
<path fill-rule="evenodd" clip-rule="evenodd" d="M2.6001 1.6001C2.04781 1.6001 1.6001 2.04781 1.6001 2.6001V21.4001C1.6001 21.9524 2.04781 22.4001 2.6001 22.4001H21.4001C21.9524 22.4001 22.4001 21.9524 22.4001 21.4001V2.6001C22.4001 2.04781 21.9524 1.6001 21.4001 1.6001H2.6001ZM7.9201 9.6001V19.2001H4.8801V9.6001H7.9201ZM8.1201 6.4081C8.1201 7.35803 7.35003 8.1281 6.4001 8.1281C5.45017 8.1281 4.6801 7.35803 4.6801 6.4081C4.6801 5.45817 5.45017 4.6881 6.4001 4.6881C7.35003 4.6881 8.1201 5.45817 8.1201 6.4081ZM19.2001 13.3715C19.2001 10.4834 17.3336 9.36063 15.4793 9.36063C14.8721 9.33071 14.2676 9.458 13.7261 9.72981C13.3148 9.93621 12.8843 10.4085 12.5524 11.2297H12.467V9.6008H9.6001V19.2077H12.65V14.098C12.6059 13.5747 12.7733 12.8984 13.116 12.4959C13.4586 12.0934 13.9487 11.9973 14.3203 11.9485H14.4362C15.4061 11.9485 16.1258 12.5489 16.1258 14.062V19.2077H19.1757L19.2001 13.3715Z" fill="#F4F4F5"/>
</svg>
