<svg width="15" height="15" viewBox="0 0 15 15" fill="none" xmlns="http://www.w3.org/2000/svg">
<path d="M7.22297 0.665992C7.32545 0.419604 7.67448 0.419604 7.77696 0.665992L9.41337 4.60039C9.45657 4.70426 9.55426 4.77523 9.66639 4.78422L13.9139 5.12475C14.1799 5.14607 14.2878 5.47802 14.0851 5.65162L10.8489 8.42374C10.7635 8.49692 10.7262 8.61176 10.7523 8.72118L11.741 12.866C11.8029 13.1256 11.5205 13.3308 11.2928 13.1917L7.65634 10.9705C7.56034 10.9119 7.43959 10.9119 7.34359 10.9705L3.70712 13.1917C3.47939 13.3308 3.19702 13.1256 3.25893 12.866L4.24763 8.72118C4.27374 8.61176 4.23642 8.49692 4.15099 8.42374L0.914828 5.65162C0.712167 5.47802 0.820024 5.14607 1.08602 5.12475L5.33354 4.78422C5.44567 4.77523 5.54336 4.70426 5.58656 4.60039L7.22297 0.665992Z" fill="#EA580B"/>
</svg>
