<svg width="24" height="24" viewBox="0 0 24 24" fill="none" xmlns="http://www.w3.org/2000/svg">
<path fill-rule="evenodd" clip-rule="evenodd" d="M11.8734 7.51417C11.8734 4.91585 13.9792 2.80981 16.576 2.80981C19.4723 2.80981 21.293 5.44331 21.293 8.00137C21.293 13.7705 16.8996 20.4594 8.83402 20.4594C6.36204 20.4594 4.06018 19.7354 2.12214 18.4919C1.89087 18.3435 1.82287 18.0365 1.96915 17.8045C2.02499 17.5906 2.23136 17.4452 2.45711 17.4718C4.18347 17.6752 5.92135 17.4053 7.39469 16.5972C5.90936 16.1668 4.73048 15.0157 4.26043 13.5493C4.21199 13.3981 4.24675 13.2326 4.35191 13.1138C4.43072 13.0247 4.54034 12.9716 4.65595 12.9631C3.50909 12.1155 2.76563 10.7538 2.76563 9.21838V9.16425C2.76563 9.00479 2.85001 8.85725 2.98745 8.77639C3.12488 8.69554 3.29484 8.69345 3.43422 8.77091C3.50714 8.81143 3.58156 8.84961 3.65738 8.88534C3.11761 8.1248 2.79991 7.1946 2.79991 6.19143C2.79991 5.43524 2.80953 4.56753 3.29081 3.79173C3.38902 3.63343 3.56947 3.55727 3.74264 3.58423C3.91189 3.55839 4.09002 3.62022 4.20606 3.76252C6.0708 6.04922 8.79676 7.60143 11.8911 7.92365C11.8794 7.78872 11.8734 7.65218 11.8734 7.51417ZM8.83402 19.4594C7.13499 19.4594 5.52434 19.0879 4.07486 18.4228C5.8047 18.3312 7.49472 17.7797 8.89301 16.6839C9.04293 16.5664 9.10264 16.3672 9.04208 16.1866C8.98153 16.006 8.81382 15.8831 8.62337 15.8798C7.23586 15.8553 6.03065 15.0761 5.40226 13.9353C5.42819 13.9357 5.45418 13.9359 5.48021 13.9359C5.90258 13.9359 6.31289 13.8801 6.7047 13.7741C6.90628 13.7196 7.04388 13.5336 7.03699 13.3249C7.0301 13.1162 6.88054 12.9396 6.67581 12.8985C5.17287 12.5968 3.99512 11.3969 3.72442 9.88363C4.15889 10.0351 4.62273 10.1242 5.1046 10.14C5.30541 10.1466 5.48625 10.0192 5.54773 9.82795C5.60921 9.63667 5.53645 9.42781 5.36942 9.31614C4.36244 8.64294 3.69991 7.49323 3.69991 6.19143C3.69991 5.67709 3.71178 5.23487 3.81359 4.84172C5.96209 7.23744 9.02454 8.7971 12.4566 8.96989C12.6129 8.97777 12.764 8.91194 12.8646 8.79204C12.9653 8.67213 13.004 8.51199 12.9692 8.35935C12.9068 8.08597 12.8734 7.80387 12.8734 7.51417C12.8734 5.46785 14.5318 3.80981 16.576 3.80981C18.7635 3.80981 20.293 5.82494 20.293 8.00137C20.293 13.3404 16.2325 19.4594 8.83402 19.4594ZM23.5278 5.04883C22.7744 5.38265 21.9651 5.60821 21.1143 5.71016C21.9823 5.19048 22.6481 4.36585 22.9621 3.38423C22.1501 3.86602 21.2506 4.21608 20.2933 4.40374L21.4301 7.22589C22.2511 6.63223 22.9639 5.89331 23.526 5.05154L23.5278 5.04883Z" fill="#F4F4F5"/>
</svg>
