<svg width="40" height="40" viewBox="0 0 40 40" fill="none" xmlns="http://www.w3.org/2000/svg">
<path fill-rule="evenodd" clip-rule="evenodd" d="M37 12.2817V27.7692C37 28.995 36.994 29.6255 36.9366 30.0639C36.5462 30.1773 35.9699 30.2743 34.8357 30.4528C31.2169 31.0227 25.8295 31.6666 20 31.6666C14.1705 31.6666 8.7831 31.0227 5.16428 30.4528C4.03013 30.2743 3.45374 30.1773 3.06341 30.0639C3.00602 29.6255 3 28.995 3 27.7692V12.2817C3 11.0417 3.00599 10.4013 3.06436 9.95562C3.46525 9.83993 4.05582 9.74214 5.21184 9.56282C8.92198 8.98728 14.3842 8.33331 20 8.33331C25.6158 8.33331 31.078 8.98728 34.7882 9.56282C35.9442 9.74214 36.5347 9.83993 36.9356 9.95562C36.994 10.4013 37 11.0417 37 12.2817ZM0 12.2817C0 9.9582 0 8.79646 0.721884 7.95396C1.44377 7.11146 2.5465 6.9404 4.75196 6.59827C8.54528 6.00983 14.1734 5.33331 20 5.33331C25.8266 5.33331 31.4547 6.00983 35.248 6.59827C37.4535 6.9404 38.5562 7.11146 39.2781 7.95396C40 8.79646 40 9.9582 40 12.2817V27.7692C40 30.0694 40 31.2196 39.2803 32.0614C38.5607 32.9033 37.4746 33.0743 35.3023 33.4163C31.5874 34.0013 26.0353 34.6666 20 34.6666C13.9647 34.6666 8.41264 34.0013 4.69765 33.4163C2.52543 33.0743 1.43932 32.9033 0.719661 32.0614C0 31.2196 0 30.0694 0 27.7692V12.2817ZM14 13.716C14 13.5356 14.1852 13.4145 14.3504 13.487L28.678 19.771C28.8774 19.8585 28.8774 20.1414 28.678 20.2289L14.3504 26.513C14.1852 26.5854 14 26.4644 14 26.284V13.716Z" fill="#EA580B"/>
</svg>
